<svg xmlns="http://www.w3.org/2000/svg" width="48.168" height="48.14" viewBox="0 0 48.168 48.14">
  <g id="_104477_amazon_icon" data-name="104477_amazon_icon" transform="translate(-4.384 -6.264)">
    <path id="Path_1" data-name="Path 1" d="M45.575,45.243a1.668,1.668,0,0,0-.715.162c-.26.1-.523.223-.77.328l-.367.152-.477.189v.006a44.944,44.944,0,0,1-15.619,3.432c-.184.006-.369.006-.551.006-7.9,0-14.343-3.66-20.848-7.27a1.477,1.477,0,0,0-.686-.182,1.194,1.194,0,0,0-.811.314,1.109,1.109,0,0,0-.347.807,1.287,1.287,0,0,0,.507.99c6.1,5.3,12.793,10.223,21.788,10.227.176,0,.354,0,.535-.008a35.383,35.383,0,0,0,17.217-5.217l.029-.02A17.36,17.36,0,0,0,46.4,47.823a1.521,1.521,0,0,0,.648-1.2A1.431,1.431,0,0,0,45.575,45.243Z" fill="#fff" fill-rule="evenodd"/>
    <path id="Path_2" data-name="Path 2" d="M52.544,42.317v0a2.272,2.272,0,0,0-.336-1.2l-.021-.029-.025-.031a1.668,1.668,0,0,0-.639-.418,8.175,8.175,0,0,0-2.773-.393,12.581,12.581,0,0,0-2.666.279l0-.061-.928.309-.016.008-.523.17v.023a8.292,8.292,0,0,0-1.691.947,1.334,1.334,0,0,0-.6,1.051.977.977,0,0,0,.354.754,1.114,1.114,0,0,0,.713.242.871.871,0,0,0,.15-.01l.045,0,.035-.006c.453-.1,1.113-.16,1.885-.27a19.06,19.06,0,0,1,1.975-.127,5.28,5.28,0,0,1,1.084.086,1.26,1.26,0,0,1,.289.09.3.3,0,0,1,.039.021.933.933,0,0,1,.027.266,9.3,9.3,0,0,1-.508,2.377c-.289.924-.641,1.85-.875,2.465a1.286,1.286,0,0,0-.09.467,1,1,0,0,0,1.018,1.023h.01a1.44,1.44,0,0,0,.881-.334,10.857,10.857,0,0,0,3.2-7.389Z" fill="#fff" fill-rule="evenodd"/>
    <path id="Path_3" data-name="Path 3" d="M31.046,19.657c-1.383.1-2.977.209-4.572.42a23.54,23.54,0,0,0-6.907,1.7,10.214,10.214,0,0,0-6.59,9.989c0,6.273,4.038,9.461,9.141,9.461a17.548,17.548,0,0,0,4.355-.531,13.27,13.27,0,0,0,5.742-3.936A16.584,16.584,0,0,0,35.721,40.8a1.486,1.486,0,0,0,1.486-.1c1.277-1.064,3.51-2.979,4.678-4.039a1.149,1.149,0,0,0,.1-1.592c-1.166-1.49-2.338-2.766-2.338-5.637V19.866c0-4.039.32-7.76-2.656-10.52-2.443-2.23-6.27-3.082-9.246-3.082H26.473c-5.418.314-11.159,2.654-12.434,9.352a1,1,0,0,0,.852,1.273l5.95.744a1.35,1.35,0,0,0,1.064-1.166,4.856,4.856,0,0,1,4.568-3.723H26.9a4.181,4.181,0,0,1,3.4,1.6c.85,1.275.744,2.977.744,4.465v.852ZM29.878,32.3a5.161,5.161,0,0,1-3.4,2.766c-.211,0-.529.1-.85.1-2.336,0-3.719-1.809-3.719-4.465,0-3.4,2.02-5,4.568-5.74a20.944,20.944,0,0,1,4.572-.426v1.277C31.046,28.263,31.151,30.175,29.878,32.3Z" fill="#fff" fill-rule="evenodd"/>
  </g>
</svg>
