<?xml version="1.0" encoding="UTF-8"?>
<svg width="48px" height="51px" viewBox="0 0 48 51" version="1.1" xmlns="http://www.w3.org/2000/svg" xmlns:xlink="http://www.w3.org/1999/xlink">
    <title>4422722F-BEF4-45BC-83B2-997DD01FF7BB</title>
    <g id="Page-1" stroke="none" stroke-width="1" fill="none" fill-rule="evenodd">
        <g id="AmazonMCF_v2" transform="translate(-183.000000, -184.000000)">
            <g id="Group-3" transform="translate(164.000000, 123.000000)">
                <g id="Group-12-Copy-4" transform="translate(19.000000, 12.000000)">
                    <g id="Group-18" transform="translate(0.000000, 49.000000)">
                        <path d="M17.2312111,30.2290828 C17.2312111,34.9867432 13.3738814,38.8446883 8.61560553,38.8446883 C3.85732968,38.8446883 0,34.9867432 0,30.2290828 C0,25.4701915 3.85732968,21.6134773 8.61560553,21.6134773 C13.3738814,21.6134773 17.2312111,25.4701915 17.2312111,30.2290828" id="Fill-168" fill="#FFDEAC"></path>
                        <path d="M28.0727198,7.38480474 C28.0727198,11.4636786 24.7661735,14.7696095 20.6879151,14.7696095 C16.6090413,14.7696095 13.3031103,11.4636786 13.3031103,7.38480474 C13.3031103,3.30654632 16.6090413,0 20.6879151,0 C24.7661735,0 28.0727198,3.30654632 28.0727198,7.38480474" id="Fill-169" fill="#FFDEAC"></path>
                        <path d="M48,37.7203518 C48,44.5174492 42.4897049,50.0283597 35.6919921,50.0283597 C28.8948947,50.0283597 23.3839842,44.5174492 23.3839842,37.7203518 C23.3839842,30.922639 28.8948947,25.4123439 35.6919921,25.4123439 C42.4897049,25.4123439 48,30.922639 48,37.7203518" id="Fill-170" fill="#FFDEAC"></path>
                        <polygon id="Fill-171" fill="#FE9900" points="7.53803944 44.4897561 39.53886 44.4897561 39.53886 13.7197364 7.53803944 13.7197364"></polygon>
                        <path d="M34.6156568,13.719121 L7.53742404,13.719121 L7.53742404,42.0275392 L29.6924537,42.0275392 C32.4112926,42.0275392 34.6156568,39.8237904 34.6156568,37.104336 L34.6156568,13.719121" id="Fill-172" fill="#FFFFFE"></path>
                        <path d="M7.99958973,44.0282059 L39.0773097,44.0282059 L39.0773097,14.1812867 L7.99958973,14.1812867 L7.99958973,44.0282059 Z M39.53886,44.9513064 L7.53803944,44.9513064 C7.28326367,44.9513064 7.07648914,44.7445319 7.07648914,44.4897561 L7.07648914,13.7197364 C7.07648914,13.4649606 7.28326367,13.2581861 7.53803944,13.2581861 L39.53886,13.2581861 C39.7936357,13.2581861 40.0004103,13.4649606 40.0004103,13.7197364 L40.0004103,44.4897561 C40.0004103,44.7445319 39.7936357,44.9513064 39.53886,44.9513064 L39.53886,44.9513064 Z" id="Fill-173" fill="#524942"></path>
                        <path d="M43.2306469,44.9513064 L3.84625247,44.9513064 C3.5914767,44.9513064 3.38470217,44.7445319 3.38470217,44.4897561 C3.38470217,44.2349804 3.5914767,44.0282059 3.84625247,44.0282059 L43.2306469,44.0282059 C43.4854227,44.0282059 43.6921972,44.2349804 43.6921972,44.4897561 C43.6921972,44.7445319 43.4854227,44.9513064 43.2306469,44.9513064" id="Fill-174" fill="#524942"></path>
                        <path d="M39.5382446,17.82138 L37.0772584,17.82138 C35.0464371,17.82138 33.384856,16.159799 33.384856,14.1289777 L33.384856,13.7185056 L43.2306469,13.7185056 L43.2306469,14.1289777 C43.2306469,16.159799 41.5690659,17.82138 39.5382446,17.82138" id="Fill-175" fill="#FE9900"></path>
                        <path d="M37.076643,17.82138 L37.076643,17.82138 C35.0458217,17.82138 33.3842406,16.159799 33.3842406,14.1289777 L33.3842406,13.7185056 L40.7690454,13.7185056 L40.7690454,14.1289777 C40.7690454,16.159799 39.1074643,17.82138 37.076643,17.82138" id="Fill-176" fill="#FFFFFE"></path>
                        <path d="M33.8464063,14.1800559 C33.8740993,15.9382548 35.3129055,17.3592143 37.0772584,17.3592143 L39.5382446,17.3592143 C41.3025975,17.3592143 42.7414036,15.9382548 42.7690966,14.1800559 L33.8464063,14.1800559 Z M39.5382446,18.2823149 L37.0772584,18.2823149 C34.7867381,18.2823149 32.9233057,16.4194979 32.9233057,14.1283623 L32.9233057,13.7185056 C32.9233057,13.4637298 33.1300803,13.2569553 33.384856,13.2569553 L43.2306469,13.2569553 C43.4854227,13.2569553 43.6921972,13.4637298 43.6921972,13.7185056 L43.6921972,14.1283623 C43.6921972,16.4194979 41.8293802,18.2823149 39.5382446,18.2823149 L39.5382446,18.2823149 Z" id="Fill-177" fill="#524942"></path>
                        <path d="M29.6924537,17.82138 L27.2308521,17.82138 C25.2000308,17.82138 23.5384497,16.159799 23.5384497,14.1289777 L23.5384497,13.7185056 L33.384856,13.7185056 L33.384856,14.1289777 C33.384856,16.159799 31.723275,17.82138 29.6924537,17.82138" id="Fill-178" fill="#FE9900"></path>
                        <path d="M27.2308521,17.82138 L27.2308521,17.82138 C25.2000308,17.82138 23.5384497,16.159799 23.5384497,14.1289777 L23.5384497,13.7185056 L30.9232544,13.7185056 L30.9232544,14.1289777 C30.9232544,16.159799 29.2616734,17.82138 27.2308521,17.82138" id="Fill-179" fill="#FFFFFE"></path>
                        <path d="M24.0006154,14.1800559 C24.0283084,15.9382548 25.4671145,17.3592143 27.2308521,17.3592143 L29.6924537,17.3592143 C31.4561912,17.3592143 32.8949973,15.9382548 32.9226903,14.1800559 L24.0006154,14.1800559 Z M29.6924537,18.2823149 L27.2308521,18.2823149 C24.9403318,18.2823149 23.0768994,16.4194979 23.0768994,14.1283623 L23.0768994,13.7185056 C23.0768994,13.4637298 23.2836739,13.2569553 23.5384497,13.2569553 L33.384856,13.2569553 C33.6396318,13.2569553 33.8464063,13.4637298 33.8464063,13.7185056 L33.8464063,14.1283623 C33.8464063,16.4194979 31.9829739,18.2823149 29.6924537,18.2823149 L29.6924537,18.2823149 Z" id="Fill-180" fill="#524942"></path>
                        <path d="M19.8460473,17.82138 L17.3844458,17.82138 C15.3536245,17.82138 13.6920434,16.159799 13.6920434,14.1289777 L13.6920434,13.7185056 L23.5384497,13.7185056 L23.5384497,14.1289777 C23.5384497,16.159799 21.8768686,17.82138 19.8460473,17.82138" id="Fill-181" fill="#FE9900"></path>
                        <path d="M17.3838304,17.82138 L17.3838304,17.82138 C15.3530091,17.82138 13.691428,16.159799 13.691428,14.1289777 L13.691428,13.7185056 L21.0762327,13.7185056 L21.0762327,14.1289777 C21.0762327,16.159799 19.4146517,17.82138 17.3838304,17.82138" id="Fill-182" fill="#FFFFFE"></path>
                        <path d="M14.1535937,14.1800559 C14.1812867,15.9382548 15.6200928,17.3592143 17.3844458,17.3592143 L19.8460473,17.3592143 C21.6097849,17.3592143 23.048591,15.9382548 23.076284,14.1800559 L14.1535937,14.1800559 Z M19.8460473,18.2823149 L17.3844458,18.2823149 C15.0939255,18.2823149 13.2304931,16.4194979 13.2304931,14.1283623 L13.2304931,13.7185056 C13.2304931,13.4637298 13.4372676,13.2569553 13.6920434,13.2569553 L23.5384497,13.2569553 C23.7932255,13.2569553 24,13.4637298 24,13.7185056 L24,14.1283623 C24,16.4194979 22.1365676,18.2823149 19.8460473,18.2823149 L19.8460473,18.2823149 Z" id="Fill-183" fill="#524942"></path>
                        <path d="M9.99902562,17.82138 L7.53803944,17.82138 C5.50721813,17.82138 3.84563707,16.159799 3.84563707,14.1289777 L3.84563707,13.7185056 L13.691428,13.7185056 L13.691428,14.1289777 C13.691428,16.159799 12.0298469,17.82138 9.99902562,17.82138" id="Fill-184" fill="#FE9900"></path>
                        <path d="M7.53742404,17.82138 L7.53742404,17.82138 C5.50660273,17.82138 3.84502167,16.159799 3.84502167,14.1289777 L3.84502167,13.7185056 L11.2298264,13.7185056 L11.2298264,14.1289777 C11.2298264,16.159799 9.56824534,17.82138 7.53742404,17.82138" id="Fill-185" fill="#FFFFFE"></path>
                        <path d="M4.30718736,14.1800559 C4.33488038,15.9382548 5.7736865,17.3592143 7.53803944,17.3592143 L9.99902562,17.3592143 C11.7633785,17.3592143 13.2021847,15.9382548 13.2298777,14.1800559 L4.30718736,14.1800559 Z M9.99902562,18.2823149 L7.53803944,18.2823149 C5.24751917,18.2823149 3.38408677,16.4194979 3.38408677,14.1283623 L3.38408677,13.7185056 C3.38408677,13.4637298 3.5908613,13.2569553 3.84563707,13.2569553 L13.691428,13.2569553 C13.9462037,13.2569553 14.1529783,13.4637298 14.1529783,13.7185056 L14.1529783,14.1283623 C14.1529783,16.4194979 12.2895459,18.2823149 9.99902562,18.2823149 L9.99902562,18.2823149 Z" id="Fill-186" fill="#524942"></path>
                        <polyline id="Fill-187" fill="#FE9900" points="10.0002564 5.10290007 3.84563707 13.7185056 13.6920434 13.7185056 16.7696608 5.10290007 10.0002564 5.10290007"></polyline>
                        <polyline id="Fill-188" fill="#FFFFFE" points="10.0002564 5.10290007 3.84563707 13.7185056 10.6150414 13.7185056 14.3074438 5.10290007 10.0002564 5.10290007"></polyline>
                        <path d="M4.74227544,13.2569553 L13.367112,13.2569553 L16.1142593,5.56445037 L10.2371856,5.56445037 L4.74227544,13.2569553 Z M13.6920434,14.1800559 L3.84563707,14.1800559 C3.67270956,14.1800559 3.51393625,14.083438 3.435165,13.9302033 C3.35577835,13.7763532 3.36931716,13.5911177 3.46962743,13.4508064 L9.62424678,4.8352009 C9.71101823,4.71396702 9.85132952,4.64134978 10.0002564,4.64134978 L16.7696608,4.64134978 C16.9198185,4.64134978 17.0601297,4.71519783 17.1469012,4.8376625 C17.2330573,4.96012718 17.2545963,5.11705428 17.2041334,5.25798097 L14.1271315,13.8735865 C14.0612836,14.0575912 13.8871253,14.1800559 13.6920434,14.1800559 L13.6920434,14.1800559 Z" id="Fill-189" fill="#524942"></path>
                        <polyline id="Fill-190" fill="#FE9900" points="37.076643 5.10290007 30.3072386 5.10290007 33.384856 13.7185056 43.2312623 13.7185056 37.076643 5.10290007"></polyline>
                        <polyline id="Fill-191" fill="#FFFFFE" points="34.6150414 5.10290007 30.3072386 5.10290007 33.384856 13.7185056 40.153645 13.7185056 34.6150414 5.10290007"></polyline>
                        <path d="M33.7097874,13.2569553 L42.3340086,13.2569553 L36.8397138,5.56445037 L30.9626401,5.56445037 L33.7097874,13.2569553 Z M43.2312623,14.1800559 L33.384856,14.1800559 C33.1897741,14.1800559 33.0156158,14.0575912 32.9503833,13.8735865 L29.872766,5.25798097 C29.8223031,5.11705428 29.8438421,4.96012718 29.9299982,4.8376625 C30.0167697,4.71519783 30.157081,4.64134978 30.3072386,4.64134978 L37.076643,4.64134978 C37.2255699,4.64134978 37.3658812,4.71396702 37.4526526,4.8352009 L43.6066566,13.4508064 C43.7069668,13.5911177 43.7205057,13.7763532 43.6417344,13.9302033 C43.5623478,14.083438 43.4041899,14.1800559 43.2312623,14.1800559 L43.2312623,14.1800559 Z" id="Fill-192" fill="#524942"></path>
                        <polyline id="Fill-193" fill="#FE9900" points="16.7696608 5.10290007 13.6920434 13.7185056 23.5384497 13.7185056 23.5384497 5.10290007 16.7696608 5.10290007"></polyline>
                        <polyline id="Fill-194" fill="#FFFFFE" points="16.7696608 5.10290007 13.6920434 13.7185056 20.4608323 13.7185056 21.0768481 5.10290007 16.7696608 5.10290007"></polyline>
                        <path d="M14.3474448,13.2569553 L23.0768994,13.2569553 L23.0768994,5.56445037 L17.0945922,5.56445037 L14.3474448,13.2569553 Z M23.5384497,14.1800559 L13.6920434,14.1800559 C13.5418857,14.1800559 13.4015744,14.1068233 13.3148029,13.9843586 C13.2286469,13.8618939 13.2071079,13.7049668 13.2575707,13.5634247 L16.3351881,4.94781917 C16.4004205,4.76442986 16.5745788,4.64134978 16.7696608,4.64134978 L23.5384497,4.64134978 C23.7932255,4.64134978 24,4.84812431 24,5.10290007 L24,13.7185056 C24,13.9732814 23.7932255,14.1800559 23.5384497,14.1800559 L23.5384497,14.1800559 Z" id="Fill-195" fill="#524942"></path>
                        <polyline id="Fill-196" fill="#FE9900" points="30.3072386 5.10290007 23.5384497 5.10290007 23.5384497 13.7185056 33.384856 13.7185056 30.3072386 5.10290007"></polyline>
                        <polyline id="Fill-197" fill="#FFFFFE" points="27.8456371 5.10290007 23.5384497 5.10290007 23.5384497 13.7185056 30.3072386 13.7185056 27.8456371 5.10290007"></polyline>
                        <path d="M24,13.2569553 L32.7294546,13.2569553 L29.9823072,5.56445037 L24,5.56445037 L24,13.2569553 Z M33.384856,14.1800559 L23.5384497,14.1800559 C23.2836739,14.1800559 23.0768994,13.9732814 23.0768994,13.7185056 L23.0768994,5.10290007 C23.0768994,4.84812431 23.2836739,4.64134978 23.5384497,4.64134978 L30.3072386,4.64134978 C30.5023206,4.64134978 30.6764789,4.76442986 30.7417113,4.94781917 L33.8193287,13.5634247 C33.8697915,13.7049668 33.8482525,13.8618939 33.7620965,13.9843586 C33.6759404,14.1068233 33.5350137,14.1800559 33.384856,14.1800559 L33.384856,14.1800559 Z" id="Fill-198" fill="#524942"></path>
                        <path d="M5.07643786,33.2039283 C4.82166209,33.2039283 4.61488756,32.9971538 4.61488756,32.742378 L4.61488756,25.5421934 C4.61488756,25.2874176 4.82166209,25.0806431 5.07643786,25.0806431 C5.33121362,25.0806431 5.53798815,25.2874176 5.53798815,25.5421934 L5.53798815,32.742378 C5.53798815,32.9971538 5.33121362,33.2039283 5.07643786,33.2039283" id="Fill-199" fill="#524942"></path>
                        <path d="M5.07643786,23.5421421 C4.82166209,23.5421421 4.61488756,23.3353676 4.61488756,23.0805918 L4.61488756,21.6651709 C4.61488756,21.4097797 4.82166209,21.2036206 5.07643786,21.2036206 C5.33121362,21.2036206 5.53798815,21.4097797 5.53798815,21.6651709 L5.53798815,23.0805918 C5.53798815,23.3353676 5.33121362,23.5421421 5.07643786,23.5421421" id="Fill-200" fill="#524942"></path>
                        <path d="M42.0004616,39.3579323 C41.7456858,39.3579323 41.5389113,39.1511577 41.5389113,38.896382 L41.5389113,30.4653965 C41.5389113,30.2106208 41.7456858,30.0038463 42.0004616,30.0038463 C42.2552373,30.0038463 42.4620118,30.2106208 42.4620118,30.4653965 L42.4620118,38.896382 C42.4620118,39.1511577 42.2552373,39.3579323 42.0004616,39.3579323" id="Fill-201" fill="#524942"></path>
                        <path d="M42.0004616,28.4653453 C41.7456858,28.4653453 41.5389113,28.2585707 41.5389113,28.003795 L41.5389113,26.5883741 C41.5389113,26.3335983 41.7456858,26.1268238 42.0004616,26.1268238 C42.2552373,26.1268238 42.4620118,26.3335983 42.4620118,26.5883741 L42.4620118,28.003795 C42.4620118,28.2585707 42.2552373,28.4653453 42.0004616,28.4653453" id="Fill-202" fill="#524942"></path>
                        <path d="M17.3844458,39.5653222 L29.6924537,39.5653222 C31.0518731,39.5653222 32.1540552,38.4631401 32.1540552,37.1037206 L32.1540552,26.6419139 C32.1540552,26.3028283 31.8783559,26.0265135 31.5386548,26.0265135 L15.5382446,26.0265135 C15.1985436,26.0265135 14.9228442,26.3028283 14.9228442,26.6419139 L14.9228442,37.1037206 C14.9228442,38.4631401 16.0244109,39.5653222 17.3844458,39.5653222" id="Fill-203" fill="#FE9900"></path>
                        <path d="M14.9228442,37.1037206 L29.0764379,37.1037206 C29.7564553,37.1037206 30.3072386,36.5529373 30.3072386,35.8729198 L30.3072386,26.0265135 L15.5382446,26.0265135 C15.1985436,26.0265135 14.9228442,26.3028283 14.9228442,26.6419139 L14.9228442,37.1037206" id="Fill-204" fill="#FFFFFE"></path>
                        <path d="M15.5382446,26.4880638 C15.4533193,26.4880638 15.3843945,26.5582194 15.3843945,26.6419139 L15.3843945,37.1037206 C15.3843945,38.2071335 16.2816482,39.1037719 17.3844458,39.1037719 L29.6924537,39.1037719 C30.7952512,39.1037719 31.6925049,38.2071335 31.6925049,37.1037206 L31.6925049,26.6419139 C31.6925049,26.5582194 31.6229647,26.4880638 31.5386548,26.4880638 L15.5382446,26.4880638 Z M29.6924537,40.0268725 L17.3844458,40.0268725 C15.7727121,40.0268725 14.4612939,38.7160696 14.4612939,37.1037206 L14.4612939,26.6419139 C14.4612939,26.0486679 14.9443832,25.5649632 15.5382446,25.5649632 L31.5386548,25.5649632 C32.1325162,25.5649632 32.6156055,26.0486679 32.6156055,26.6419139 L32.6156055,37.1037206 C32.6156055,38.7160696 31.3041873,40.0268725 29.6924537,40.0268725 L29.6924537,40.0268725 Z" id="Fill-205" fill="#524942"></path>
                        <path d="M28.4616529,29.5656812 C28.2068771,29.5656812 28.0001026,29.3589066 28.0001026,29.1041309 L28.0001026,26.0277443 C28.0001026,23.5673735 25.9988205,21.565476 23.5384497,21.565476 C21.0780789,21.565476 19.0761814,23.5673735 19.0761814,26.0277443 L19.0761814,29.1041309 C19.0761814,29.3589066 18.8694069,29.5656812 18.6146311,29.5656812 C18.3598554,29.5656812 18.1530808,29.3589066 18.1530808,29.1041309 L18.1530808,26.0277443 C18.1530808,23.0584374 20.5691428,20.6423754 23.5384497,20.6423754 C26.5077566,20.6423754 28.9232032,23.0584374 28.9232032,26.0277443 L28.9232032,29.1041309 C28.9232032,29.3589066 28.7164286,29.5656812 28.4616529,29.5656812" id="Fill-206" fill="#524942"></path>
                        <path d="M12.4612426,40.0268725 L9.99964102,40.0268725 C9.74486525,40.0268725 9.53809072,39.820098 9.53809072,39.5653222 C9.53809072,39.3105464 9.74486525,39.1037719 9.99964102,39.1037719 L12.4612426,39.1037719 C12.7160184,39.1037719 12.9227929,39.3105464 12.9227929,39.5653222 C12.9227929,39.820098 12.7160184,40.0268725 12.4612426,40.0268725" id="Fill-207" fill="#524942"></path>
                        <path d="M11.2304418,41.2576733 C10.975666,41.2576733 10.7688915,41.0508987 10.7688915,40.796123 L10.7688915,38.3345214 C10.7688915,38.0797456 10.975666,37.8729711 11.2304418,37.8729711 C11.4852176,37.8729711 11.6919921,38.0797456 11.6919921,38.3345214 L11.6919921,40.796123 C11.6919921,41.0508987 11.4852176,41.2576733 11.2304418,41.2576733" id="Fill-208" fill="#524942"></path>
                        <path d="M14.3080592,23.409831 L11.8464576,23.409831 C11.5916818,23.409831 11.3849073,23.2036719 11.3849073,22.9482807 C11.3849073,22.693505 11.5916818,22.4867304 11.8464576,22.4867304 L14.3080592,22.4867304 C14.5628349,22.4867304 14.7696095,22.693505 14.7696095,22.9482807 C14.7696095,23.2036719 14.5628349,23.409831 14.3080592,23.409831" id="Fill-209" fill="#524942"></path>
                        <path d="M13.0772584,24.6406318 C12.8224826,24.6406318 12.6157081,24.4344727 12.6157081,24.1790815 L12.6157081,21.7174799 C12.6157081,21.4627042 12.8224826,21.2559296 13.0772584,21.2559296 C13.3320342,21.2559296 13.5388087,21.4627042 13.5388087,21.7174799 L13.5388087,24.1790815 C13.5388087,24.4344727 13.3320342,24.6406318 13.0772584,24.6406318" id="Fill-210" fill="#524942"></path>
                        <path d="M37.0803354,35.1036693 L34.6187338,35.1036693 C34.3639581,35.1036693 34.1571835,34.8968948 34.1571835,34.642119 C34.1571835,34.3873433 34.3639581,34.1805687 34.6187338,34.1805687 L37.0803354,34.1805687 C37.3351112,34.1805687 37.5418857,34.3873433 37.5418857,34.642119 C37.5418857,34.8968948 37.3351112,35.1036693 37.0803354,35.1036693" id="Fill-211" fill="#524942"></path>
                        <path d="M35.8495346,36.3344701 C35.5947588,36.3344701 35.3879843,36.1276956 35.3879843,35.8729198 L35.3879843,33.4113182 C35.3879843,33.1565425 35.5947588,32.9497679 35.8495346,32.9497679 C36.1043104,32.9497679 36.3110849,33.1565425 36.3110849,33.4113182 L36.3110849,35.8729198 C36.3110849,36.1276956 36.1043104,36.3344701 35.8495346,36.3344701" id="Fill-212" fill="#524942"></path>
                        <path d="M34.6181184,20.947614 L32.1565168,20.947614 C31.9017411,20.947614 31.6949665,20.7414549 31.6949665,20.4860637 C31.6949665,20.231288 31.9017411,20.0245134 32.1565168,20.0245134 L34.6181184,20.0245134 C34.8728942,20.0245134 35.0796687,20.231288 35.0796687,20.4860637 C35.0796687,20.7414549 34.8728942,20.947614 34.6181184,20.947614" id="Fill-213" fill="#524942"></path>
                        <path d="M33.3873176,22.1784148 C33.1325419,22.1784148 32.9257673,21.9722557 32.9257673,21.7168645 L32.9257673,19.255263 C32.9257673,19.0004872 33.1325419,18.7937127 33.3873176,18.7937127 C33.6420934,18.7937127 33.8488679,19.0004872 33.8488679,19.255263 L33.8488679,21.7168645 C33.8488679,21.9722557 33.6420934,22.1784148 33.3873176,22.1784148" id="Fill-214" fill="#524942"></path>
                    </g>
                </g>
            </g>
        </g>
    </g>
</svg>