<?xml version="1.0" encoding="UTF-8"?>
<svg width="18px" height="16px" viewBox="0 0 18 16" version="1.1" xmlns="http://www.w3.org/2000/svg" xmlns:xlink="http://www.w3.org/1999/xlink">
    <title>65BBC016-4EAD-4DD6-AB9E-47ACCF73BD2A</title>
    <g id="Page-1" stroke="none" stroke-width="1" fill="none" fill-rule="evenodd">
        <g id="AmazonMCF_v2" transform="translate(-807.000000, -278.000000)" fill="#FE9900" fill-rule="nonzero">
            <g id="Group-3" transform="translate(164.000000, 123.000000)">
                <g id="Group-12-Copy" transform="translate(579.000000, 12.000000)">
                    <g id="Group-11" transform="translate(64.000000, 141.000000)">
                        <path d="M17.5,11 L15,11 L15,14 L14,13.334375 L13,14 L13,11 L10.5,11 C10.225,11 10,11.225 10,11.5 L10,17.5 C10,17.775 10.225,18 10.5,18 L17.5,18 C17.775,18 18,17.775 18,17.5 L18,11.5 C18,11.225 17.775,11 17.5,11 Z M5.5,9 L12.5,9 C12.775,9 13,8.775 13,8.5 L13,2.5 C13,2.225 12.775,2 12.5,2 L10,2 L10,5 L9,4.334375 L8,5 L8,2 L5.5,2 C5.225,2 5,2.225 5,2.5 L5,8.5 C5,8.775 5.225,9 5.5,9 Z M7.5,11 L5,11 L5,14 L4,13.334375 L3,14 L3,11 L0.5,11 C0.225,11 0,11.225 0,11.5 L0,17.5 C0,17.775 0.225,18 0.5,18 L7.5,18 C7.775,18 8,17.775 8,17.5 L8,11.5 C8,11.225 7.775,11 7.5,11 Z" id="Shape"></path>
                    </g>
                </g>
            </g>
        </g>
    </g>
</svg>