<?xml version="1.0" encoding="UTF-8"?>
<svg width="48px" height="47px" viewBox="0 0 48 47" version="1.1" xmlns="http://www.w3.org/2000/svg" xmlns:xlink="http://www.w3.org/1999/xlink">
    <title>B70DB21C-6071-4B5C-A84F-B55D9EDF6505</title>
    <g id="Page-1" stroke="none" stroke-width="1" fill="none" fill-rule="evenodd">
        <g id="AmazonMCF_v2" transform="translate(-743.000000, -184.000000)">
            <g id="Group-3" transform="translate(164.000000, 123.000000)">
                <g id="Group-12-Copy" transform="translate(579.000000, 12.000000)">
                    <g id="Group-10" transform="translate(0.000000, 49.000000)">
                        <path d="M16.5923877,28.1851335 C16.5923877,32.7664103 12.8780632,36.4813274 8.29619387,36.4813274 C3.71432451,36.4813274 0,32.7664103 0,28.1851335 C0,23.6026716 3.71432451,19.8889396 8.29619387,19.8889396 C12.8780632,19.8889396 16.5923877,23.6026716 16.5923877,28.1851335" id="Fill-1143" fill="#FFDEAC"></path>
                        <path d="M39.7043987,39.5580301 C39.7043987,43.4856854 36.5210306,46.6690535 32.5933754,46.6690535 C28.6663128,46.6690535 25.4823521,43.4856854 25.4823521,39.5580301 C25.4823521,35.6309675 28.6663128,32.4470068 32.5933754,32.4470068 C36.5210306,32.4470068 39.7043987,35.6309675 39.7043987,39.5580301" id="Fill-1144" fill="#FFDEAC"></path>
                        <path d="M48,11.8517055 C48,18.3974025 42.6933988,23.7034111 36.1482945,23.7034111 C29.6025975,23.7034111 24.2965889,18.3974025 24.2965889,11.8517055 C24.2965889,5.30600857 29.6025975,0 36.1482945,0 C42.6933988,0 48,5.30600857 48,11.8517055" id="Fill-1145" fill="#FFDEAC"></path>
                        <polygon id="Fill-1146" fill="#FE9900" points="17.3331193 42.0729621 32.7403365 42.0729621 32.7403365 38.5174504 17.3331193 38.5174504"></polygon>
                        <path d="M29.7774102,38.5174504 L17.3331193,38.5174504 L17.3331193,40.8877915 L27.407069,40.8877915 C28.7160899,40.8877915 29.7774102,39.8264713 29.7774102,38.5174504" id="Fill-1147" fill="#FFFFFE"></path>
                        <path d="M17.7775583,41.6285231 L32.2958976,41.6285231 L32.2958976,38.9618894 L17.7775583,38.9618894 L17.7775583,41.6285231 Z M32.7403365,42.517401 L17.3331193,42.517401 C17.087789,42.517401 16.8886804,42.3182924 16.8886804,42.0729621 L16.8886804,38.5174504 C16.8886804,38.2721201 17.087789,38.0730114 17.3331193,38.0730114 L32.7403365,38.0730114 C32.9856668,38.0730114 33.1847755,38.2721201 33.1847755,38.5174504 L33.1847755,42.0729621 C33.1847755,42.3182924 32.9856668,42.517401 32.7403365,42.517401 L32.7403365,42.517401 Z" id="Fill-1148" fill="#524942"></path>
                        <path d="M42.221701,38.5174504 L7.85175492,38.5174504 C6.86984111,38.5174504 6.07399909,37.7216084 6.07399909,36.7396946 L6.07399909,34.9619387 L43.9994568,34.9619387 L43.9994568,36.7396946 C43.9994568,37.7216084 43.2036148,38.5174504 42.221701,38.5174504" id="Fill-1149" fill="#FE9900"></path>
                        <path d="M38.6655967,37.3322798 L6.07399909,37.3322798 L6.07399909,34.9619387 L41.0359378,34.9619387 C41.0359378,36.2709596 39.9746176,37.3322798 38.6655967,37.3322798" id="Fill-1150" fill="#FFFFFE"></path>
                        <path d="M6.51843804,35.4063777 L6.51843804,36.7396946 C6.51843804,37.4745003 7.11694917,38.0730114 7.85175492,38.0730114 L42.221701,38.0730114 C42.9570993,38.0730114 43.5550178,37.4745003 43.5550178,36.7396946 L43.5550178,35.4063777 L6.51843804,35.4063777 Z M42.221701,38.9618894 L7.85175492,38.9618894 C6.62628856,38.9618894 5.62956013,37.9645683 5.62956013,36.7396946 L5.62956013,34.9619387 C5.62956013,34.7166084 5.82866878,34.5174998 6.07399909,34.5174998 L43.9994568,34.5174998 C44.2447871,34.5174998 44.4438958,34.7166084 44.4438958,34.9619387 L44.4438958,36.7396946 C44.4438958,37.9645683 43.4471673,38.9618894 42.221701,38.9618894 L42.221701,38.9618894 Z" id="Fill-1151" fill="#524942"></path>
                        <path d="M36.8884335,42.517401 L13.1850224,42.517401 C12.9396921,42.517401 12.7405834,42.3182924 12.7405834,42.0729621 C12.7405834,41.8276318 12.9396921,41.6285231 13.1850224,41.6285231 L36.8884335,41.6285231 C37.1337638,41.6285231 37.3328724,41.8276318 37.3328724,42.0729621 C37.3328724,42.3182924 37.1337638,42.517401 36.8884335,42.517401" id="Fill-1152" fill="#524942"></path>
                        <path d="M25.4811669,36.7396946 C25.4811669,36.9850249 25.2820582,37.1841335 25.0367279,37.1841335 C24.7913976,37.1841335 24.592289,36.9850249 24.592289,36.7396946 C24.592289,36.4943643 24.7913976,36.2952556 25.0367279,36.2952556 C25.2820582,36.2952556 25.4811669,36.4943643 25.4811669,36.7396946" id="Fill-1153" fill="#524942"></path>
                        <path d="M43.9994568,34.9625313 L6.07399909,34.9625313 L6.07399909,13.0368761 C6.07399909,12.0549623 6.86984111,11.2591203 7.85175492,11.2591203 L42.221701,11.2591203 C43.2036148,11.2591203 43.9994568,12.0549623 43.9994568,13.0368761 L43.9994568,34.9625313" id="Fill-1154" fill="#FE9900"></path>
                        <path d="M39.2587746,30.8138418 L6.07399909,30.8138418 L6.07399909,13.0368761 C6.07399909,12.0549623 6.86984111,11.2591203 7.85175492,11.2591203 L41.6291157,11.2591203 L41.6291157,28.4435007 C41.6291157,29.7525216 40.5677955,30.8138418 39.2587746,30.8138418" id="Fill-1155" fill="#FFFFFE"></path>
                        <path d="M6.51843804,34.5174998 L43.5550178,34.5174998 L43.5550178,13.0362835 C43.5550178,12.3014778 42.9570993,11.7029666 42.221701,11.7029666 L7.85175492,11.7029666 C7.11694917,11.7029666 6.51843804,12.3014778 6.51843804,13.0362835 L6.51843804,34.5174998 Z M43.9994568,35.4063777 L6.07399909,35.4063777 C5.82866878,35.4063777 5.62956013,35.207269 5.62956013,34.9619387 L5.62956013,13.0362835 C5.62956013,11.8114097 6.62628856,10.8140887 7.85175492,10.8140887 L42.221701,10.8140887 C43.4471673,10.8140887 44.4438958,11.8114097 44.4438958,13.0362835 L44.4438958,34.9619387 C44.4438958,35.207269 44.2447871,35.4063777 43.9994568,35.4063777 L43.9994568,35.4063777 Z" id="Fill-1156" fill="#524942"></path>
                        <polygon id="Fill-1157" fill="#FE9900" points="11.4072666 34.9619387 38.6661893 34.9619387 38.6661893 8.88759398 11.4072666 8.88759398"></polygon>
                        <path d="M36.2958482,8.88818657 L11.4072666,8.88818657 L11.4072666,33.1841829 L25.6293132,33.1841829 C31.5202035,33.1841829 36.2958482,28.4085382 36.2958482,22.5176479 L36.2958482,8.88818657" id="Fill-1158" fill="#FFFFFE"></path>
                        <path d="M11.8517055,34.5174998 L38.2217503,34.5174998 L38.2217503,9.33203294 L11.8517055,9.33203294 L11.8517055,34.5174998 Z M38.6661893,35.4063777 L11.4072666,35.4063777 C11.1619363,35.4063777 10.9628276,35.207269 10.9628276,34.9619387 L10.9628276,8.88759398 C10.9628276,8.64226368 11.1619363,8.44315502 11.4072666,8.44315502 L38.6661893,8.44315502 C38.9115196,8.44315502 39.1106283,8.64226368 39.1106283,8.88759398 L39.1106283,34.9619387 C39.1106283,35.207269 38.9115196,35.4063777 38.6661893,35.4063777 L38.6661893,35.4063777 Z" id="Fill-1159" fill="#524942"></path>
                        <path d="M37.4810188,4.14750435 L12.5924371,4.14750435 C11.938223,4.14750435 11.4072666,4.67846076 11.4072666,5.33267491 L11.4072666,8.88818657 L38.6661893,8.88818657 L38.6661893,5.33267491 C38.6661893,4.67846076 38.1358255,4.14750435 37.4810188,4.14750435" id="Fill-1160" fill="#FE9900"></path>
                        <path d="M36.8884335,4.14750435 L12.5924371,4.14750435 C11.938223,4.14750435 11.4072666,4.67846076 11.4072666,5.33267491 L11.4072666,7.70242343 L35.7032629,7.70242343 C36.3574771,7.70242343 36.8884335,7.1720596 36.8884335,6.51725287 L36.8884335,4.14750435" id="Fill-1161" fill="#FFFFFE"></path>
                        <path d="M11.8517055,8.44374761 L38.2217503,8.44374761 L38.2217503,5.33267491 C38.2217503,4.92438365 37.8899026,4.59194331 37.4810188,4.59194331 L12.5924371,4.59194331 C12.1841459,4.59194331 11.8517055,4.92438365 11.8517055,5.33267491 L11.8517055,8.44374761 Z M38.6661893,9.33262552 L11.4072666,9.33262552 C11.1619363,9.33262552 10.9628276,9.13351687 10.9628276,8.88818657 L10.9628276,5.33267491 C10.9628276,4.43372304 11.6940779,3.70306539 12.5924371,3.70306539 L37.4810188,3.70306539 C38.3799706,3.70306539 39.1106283,4.43372304 39.1106283,5.33267491 L39.1106283,8.88818657 C39.1106283,9.13351687 38.9115196,9.33262552 38.6661893,9.33262552 L38.6661893,9.33262552 Z" id="Fill-1162" fill="#524942"></path>
                        <path d="M35.7038555,6.96406217 C35.5853385,6.96406217 35.4727473,6.91665535 35.3897853,6.83369341 C35.3068234,6.74480562 35.2594166,6.63221442 35.2594166,6.51962321 C35.2594166,6.40110616 35.3068234,6.28851496 35.3897853,6.20555302 C35.561635,6.03370329 35.8520018,6.03962914 36.0179257,6.19962717 C36.1008876,6.28851496 36.1482945,6.40110616 36.1482945,6.51962321 C36.1482945,6.63221442 36.1008876,6.74480562 36.0179257,6.83369341 C35.9349638,6.91665535 35.8164467,6.96406217 35.7038555,6.96406217" id="Fill-1163" fill="#524942"></path>
                        <path d="M32.2964902,6.51962321 C32.2964902,6.2707374 32.4920433,6.07518426 32.7409291,6.07518426 C32.9838891,6.07518426 33.1853681,6.2707374 33.1853681,6.51962321 C33.1853681,6.76258318 32.9838891,6.96406217 32.7409291,6.96406217 C32.4920433,6.96406217 32.2964902,6.76258318 32.2964902,6.51962321" id="Fill-1164" fill="#524942"></path>
                        <path d="M29.7780027,6.96406217 C29.6594857,6.96406217 29.5468945,6.91665535 29.4639325,6.83369341 C29.3809706,6.74480562 29.3335638,6.63221442 29.3335638,6.51962321 C29.3335638,6.40110616 29.3809706,6.28851496 29.4639325,6.20555302 C29.6298564,6.03370329 29.9202232,6.03370329 30.0920729,6.19962717 C30.1750349,6.28851496 30.2224417,6.40110616 30.2224417,6.51962321 C30.2224417,6.63221442 30.1750349,6.74480562 30.0920729,6.83369341 C30.009111,6.91665535 29.8905939,6.96406217 29.7780027,6.96406217" id="Fill-1165" fill="#524942"></path>
                        <path d="M8.44493278,25.9244207 C8.19960247,25.9244207 8.00049382,25.725312 8.00049382,25.4799817 L8.00049382,19.1399119 C8.00049382,18.8945815 8.19960247,18.6954729 8.44493278,18.6954729 C8.69026308,18.6954729 8.88937174,18.8945815 8.88937174,19.1399119 L8.88937174,25.4799817 C8.88937174,25.725312 8.69026308,25.9244207 8.44493278,25.9244207" id="Fill-1166" fill="#524942"></path>
                        <path d="M8.44493278,17.2140097 C8.19960247,17.2140097 8.00049382,17.0149011 8.00049382,16.7695707 L8.00049382,15.4066246 C8.00049382,15.1612943 8.19960247,14.9621857 8.44493278,14.9621857 C8.69026308,14.9621857 8.88937174,15.1612943 8.88937174,15.4066246 L8.88937174,16.7695707 C8.88937174,17.0149011 8.69026308,17.2140097 8.44493278,17.2140097" id="Fill-1167" fill="#524942"></path>
                        <path d="M34.5180924,21.9250627 C34.5180924,27.1617387 30.273404,31.4064271 25.0367279,31.4064271 C19.8000519,31.4064271 15.5553635,27.1617387 15.5553635,21.9250627 C15.5553635,16.6883866 19.8000519,12.4436982 25.0367279,12.4436982 C30.273404,12.4436982 34.5180924,16.6883866 34.5180924,21.9250627" id="Fill-1168" fill="#FFFFFE"></path>
                        <path d="M32.2757497,15.80899 C32.9471488,17.1097147 33.3329218,18.5822891 33.3329218,20.1473068 C33.3329218,25.3833903 29.0876409,29.6286713 23.8515574,29.6286713 C20.9472969,29.6286713 18.3517734,28.3196504 16.6125356,26.2627869 C18.1876273,29.3157862 21.3650696,31.4064271 25.0367279,31.4064271 C30.273404,31.4064271 34.5180924,27.1617387 34.5180924,21.9250627 C34.5180924,19.5932396 33.6724732,17.4605252 32.2757497,15.80899" id="Fill-1169" fill="#FE9900"></path>
                        <path d="M25.0367279,12.8881372 C20.0542709,12.8881372 15.9998025,16.9420131 15.9998025,21.9250627 C15.9998025,26.9081122 20.0542709,30.9619881 25.0367279,30.9619881 C30.0197775,30.9619881 34.0736534,26.9081122 34.0736534,21.9250627 C34.0736534,16.9420131 30.0197775,12.8881372 25.0367279,12.8881372 Z M25.0367279,31.850866 C19.5636103,31.850866 15.1109246,27.3981803 15.1109246,21.9250627 C15.1109246,16.451945 19.5636103,11.9992593 25.0367279,11.9992593 C30.5098456,11.9992593 34.9625313,16.451945 34.9625313,21.9250627 C34.9625313,27.3981803 30.5098456,31.850866 25.0367279,31.850866 L25.0367279,31.850866 Z" id="Fill-1170" fill="#524942"></path>
                        <polyline id="Fill-1171" fill="#FE9900" points="32.1471587 24.2954038 40.4433526 27.1421834 36.6721399 28.8203849 34.9939383 32.5915976 32.1471587 24.2954038"></polyline>
                        <polyline id="Fill-1172" fill="#FFFFFE" points="32.1471587 24.2954038 36.6721399 28.8203849 34.9939383 32.5915976 32.1471587 24.2954038"></polyline>
                        <path d="M32.8624091,25.0106542 L35.047271,31.377983 L36.2662189,28.6396464 C36.3106628,28.5389069 36.3912544,28.4589079 36.4914013,28.4138714 L39.2297379,27.1955161 L32.8624091,25.0106542 Z M34.9939383,33.0360366 C34.9874199,33.0360366 34.9809015,33.0360366 34.974383,33.035444 C34.7918668,33.0271478 34.6330539,32.9086308 34.5737954,32.7355959 L31.7270157,24.439402 C31.6719053,24.279404 31.7127937,24.1010358 31.8330885,23.9813336 C31.9539759,23.8616313 32.1311589,23.820743 32.2917495,23.8752608 L40.5879434,26.7220405 C40.7609783,26.7807064 40.8794953,26.9401119 40.8877915,27.1226281 C40.8954951,27.3051444 40.7912001,27.4734386 40.6240911,27.5481043 L37.0087283,29.1569734 L35.3998593,32.7723361 C35.328749,32.9329268 35.168751,33.0360366 34.9939383,33.0360366 L34.9939383,33.0360366 Z" id="Fill-1173" fill="#524942"></path>
                        <path d="M22.3700942,26.8518166 L27.7033617,26.8518166 C29.0123826,26.8518166 30.0737028,25.7904964 30.0737028,24.4814755 L30.0737028,19.7407933 C30.0737028,19.4130937 29.8088172,19.148208 29.4811175,19.148208 L20.5923384,19.148208 C20.2652313,19.148208 19.9997531,19.4130937 19.9997531,19.7407933 L19.9997531,24.4814755 C19.9997531,25.7904964 21.0610733,26.8518166 22.3700942,26.8518166" id="Fill-1174" fill="#FE9900"></path>
                        <path d="M19.9997531,24.4814755 L27.7033617,24.4814755 C28.3581684,24.4814755 28.8885322,23.9505191 28.8885322,23.296305 L28.8885322,19.148208 L20.5923384,19.148208 C20.2652313,19.148208 19.9997531,19.4130937 19.9997531,19.7407933 L19.9997531,24.4814755" id="Fill-1175" fill="#FFFFFE"></path>
                        <path d="M20.5923384,19.5920544 C20.5111542,19.5920544 20.444192,19.658424 20.444192,19.7402007 L20.444192,24.480883 C20.444192,25.5427958 21.3081814,26.4067851 22.3700942,26.4067851 L27.7033617,26.4067851 C28.7652745,26.4067851 29.6292638,25.5427958 29.6292638,24.480883 L29.6292638,19.7402007 C29.6292638,19.658424 29.5628943,19.5920544 29.4811175,19.5920544 L20.5923384,19.5920544 Z M27.7033617,27.295663 L22.3700942,27.295663 C20.8181134,27.295663 19.5553141,26.0328638 19.5553141,24.480883 L19.5553141,19.7402007 C19.5553141,19.1683559 20.0204936,18.7031765 20.5923384,18.7031765 L29.4811175,18.7031765 C30.0529623,18.7031765 30.5181418,19.1683559 30.5181418,19.7402007 L30.5181418,24.480883 C30.5181418,26.0328638 29.2553425,27.295663 27.7033617,27.295663 L27.7033617,27.295663 Z" id="Fill-1176" fill="#524942"></path>
                        <path d="M27.407069,20.8761867 C27.1617387,20.8761867 26.9626301,20.6770781 26.9626301,20.4317478 L26.9626301,18.4560684 C26.9626301,17.3941556 26.0986408,16.5301663 25.0367279,16.5301663 C23.9748151,16.5301663 23.1108258,17.3941556 23.1108258,18.4560684 L23.1108258,20.4317478 C23.1108258,20.6770781 22.9117171,20.8761867 22.6663868,20.8761867 C22.4210565,20.8761867 22.2219479,20.6770781 22.2219479,20.4317478 L22.2219479,18.4560684 C22.2219479,16.903495 23.4847471,15.6412884 25.0367279,15.6412884 C26.5887088,15.6412884 27.851508,16.903495 27.851508,18.4560684 L27.851508,20.4317478 C27.851508,20.6770781 27.6523994,20.8761867 27.407069,20.8761867" id="Fill-1177" fill="#524942"></path>
                    </g>
                </g>
            </g>
        </g>
    </g>
</svg>