<?xml version="1.0" encoding="UTF-8"?>
<svg width="16px" height="16px" viewBox="0 0 16 16" version="1.1" xmlns="http://www.w3.org/2000/svg" xmlns:xlink="http://www.w3.org/1999/xlink">
    <title>12974385-F585-4D4C-BFF9-934AAB461883</title>
    <g id="Page-1" stroke="none" stroke-width="1" fill="none" fill-rule="evenodd">
        <g id="AmazonMCF_v2" transform="translate(-1028.000000, -675.000000)" fill="#FFFFFF" fill-rule="nonzero">
            <g id="Group-17" transform="translate(164.000000, 332.000000)">
                <g id="Group-8" transform="translate(823.000000, 91.000000)">
                    <g id="Group-7" transform="translate(0.000000, 102.000000)">
                        <g id="Group-6" transform="translate(1.000000, 140.000000)">
                            <g id="unlink" transform="translate(40.000000, 10.000000)">
                                <path d="M9.50260327,12.6845986 C9.64904055,12.8310359 9.64904055,13.068473 9.50260327,13.2149416 L8.10654281,14.611002 C6.25457678,16.4629368 3.24114369,16.4630618 1.3890214,14.611002 C-0.462975884,12.7589735 -0.462975884,9.74550916 1.3890214,7.89351187 L2.78511311,6.49742017 C2.93155039,6.35098288 3.16898755,6.35098288 3.31545608,6.49742017 L4.55289177,7.73485586 C4.69932905,7.88129314 4.69932905,8.11873029 4.55289177,8.26519883 L3.15680006,9.66125929 C2.27955135,10.5385392 2.27955135,11.9659434 3.15680006,12.8432234 C4.03404878,13.7204721 5.46148419,13.7205033 6.3387954,12.8432234 L7.73485586,11.4471629 C7.88129314,11.3007256 8.11873029,11.3007256 8.26519883,11.4471629 L9.50260327,12.6845986 Z M7.73485586,4.55286052 C7.88129314,4.6992978 8.11873029,4.6992978 8.26519883,4.55286052 L9.66125929,3.15680006 C10.538508,2.2794576 11.9659434,2.2795201 12.8432546,3.15680006 C13.7205033,4.03408003 13.7205033,5.46148419 12.8432546,6.33876415 L11.4471629,7.73482461 C11.3007256,7.88126189 11.3007256,8.11869904 11.4471629,8.26516758 L12.6845986,9.50260327 C12.8310359,9.64904055 13.068473,9.64904055 13.2149416,9.50260327 L14.6110333,8.10651156 C16.4630618,6.25448303 16.4630618,3.24104994 14.6110333,1.3890214 C12.7589735,-0.462975884 9.74557166,-0.462975884 7.89351187,1.3890214 L6.49745142,2.78508186 C6.35101413,2.93151914 6.35101413,3.1689563 6.49745142,3.31542483 L7.73485586,4.55286052 Z M15.0732201,15.7803441 L15.7803128,15.0732514 C16.0732186,14.7803455 16.0732186,14.3054712 15.7803128,14.0125967 L1.98745803,0.219679366 C1.69455221,-0.0732264552 1.2196779,-0.0732264552 0.92680333,0.219679366 L0.219679366,0.92680333 C-0.0732264552,1.21970915 -0.0732264552,1.69458346 0.219679366,1.98745803 L14.0125654,15.7803441 C14.3054712,16.0732186 14.7803455,16.0732186 15.0732201,15.7803441 L15.0732201,15.7803441 Z" id="Shape"></path>
                            </g>
                        </g>
                    </g>
                </g>
            </g>
        </g>
    </g>
</svg>