<svg xmlns="http://www.w3.org/2000/svg" width="27.963" height="27.975" viewBox="0 0 27.963 27.975">
  <g id="link-sm" transform="translate(-2.025 -1.925)">
    <g id="Group_1" data-name="Group 1">
      <path id="Path_1" data-name="Path 1" d="M10.6,21.4a1.933,1.933,0,0,0,2.8,0l8-8a1.98,1.98,0,0,0-2.8-2.8l-8,8a1.933,1.933,0,0,0,0,2.8Z" fill="#fe9900"/>
      <path id="Path_2" data-name="Path 2" d="M27.6,4.4a8.27,8.27,0,0,0-11.8,0L12.7,7.5a1.98,1.98,0,0,0,2.8,2.8l3.1-3.1a4.384,4.384,0,0,1,6.2,6.2l-3.1,3.1a1.933,1.933,0,0,0,0,2.8A1.457,1.457,0,0,0,23,20a1.974,1.974,0,0,0,1.4-.6l3.1-3.1a8.481,8.481,0,0,0,.1-11.9Z" fill="#fe9900"/>
      <path id="Path_3" data-name="Path 3" d="M16.6,21.6l-3.1,3.1a4.384,4.384,0,1,1-6.2-6.2l3.1-3.1a1.98,1.98,0,0,0-2.8-2.8L4.5,15.7a8.27,8.27,0,0,0,0,11.8,8.452,8.452,0,0,0,11.8,0l3.1-3.1a1.98,1.98,0,0,0-2.8-2.8Z" fill="#fe9900"/>
    </g>
  </g>
</svg>
