<?xml version="1.0" encoding="UTF-8"?>
<svg width="48px" height="47px" viewBox="0 0 48 47" version="1.1" xmlns="http://www.w3.org/2000/svg" xmlns:xlink="http://www.w3.org/1999/xlink">
    <title>79D51FD4-DDCC-4322-B684-C1DF4DBFD76B</title>
    <g id="Page-1" stroke="none" stroke-width="1" fill="none" fill-rule="evenodd">
        <g id="AmazonMCF_v2" transform="translate(-1021.000000, -185.000000)">
            <g id="Group-3" transform="translate(164.000000, 123.000000)">
                <g id="Group-12-Copy-2" transform="translate(857.000000, 12.000000)">
                    <g id="Group-14" transform="translate(0.000000, 50.000000)">
                        <path d="M48,15.5597817 C48,20.1435452 44.2846205,23.8583319 39.7014498,23.8583319 C35.118279,23.8583319 31.4028996,20.1435452 31.4028996,15.5597817 C31.4028996,10.9772037 35.118279,7.26123145 39.7014498,7.26123145 C44.2846205,7.26123145 48,10.9772037 48,15.5597817" id="Fill-807" fill="#FFDEAC"></path>
                        <path d="M27.7088592,7.11304305 C27.7088592,11.0412211 24.5245869,14.2260861 20.5958161,14.2260861 C16.6676381,14.2260861 13.4827731,11.0412211 13.4827731,7.11304305 C13.4827731,3.18427227 16.6676381,0 20.5958161,0 C24.5245869,0 27.7088592,3.18427227 27.7088592,7.11304305" id="Fill-808" fill="#FFDEAC"></path>
                        <path d="M23.7101435,34.658895 C23.7101435,41.2064511 18.4026279,46.5139668 11.8550717,46.5139668 C5.30751562,46.5139668 0,41.2064511 0,34.658895 C0,28.1119316 5.30751562,22.8038233 11.8550717,22.8038233 C18.4026279,22.8038233 23.7101435,28.1119316 23.7101435,34.658895" id="Fill-809" fill="#FFDEAC"></path>
                        <path d="M41.4506656,20.7303712 L38.3790165,19.4138655 L30.0804663,19.4138655 C28.7710736,19.4138655 27.7094519,18.3522438 27.7094519,17.0428511 L27.7094519,8.15154733 L23.5601768,8.15154733 L23.5601768,31.8616908 L40.0132382,31.8616908 C40.4844773,31.8616908 40.9367483,31.6743807 41.2704685,31.3406604 L42.007854,30.6038677 C42.3415743,30.2707402 42.5288844,29.8184692 42.5288844,29.3460446 L42.5288844,22.3651856 C42.5288844,21.6532885 42.1044728,21.0107437 41.4506656,20.7303712" id="Fill-810" fill="#FE9900"></path>
                        <path d="M37.8941441,20.7303712 L34.8219022,19.4138655 L30.0804663,19.4138655 C28.7710736,19.4138655 27.7094519,18.3522438 27.7094519,17.0428511 L27.7094519,8.15154733 L23.5607696,8.15154733 L23.5607696,31.8616908 L36.4567166,31.8616908 C36.9279557,31.8616908 37.3802267,31.6743807 37.7133542,31.3406604 L38.4507397,30.6038677 C38.78446,30.2707402 38.9717701,29.8184692 38.9717701,29.3460446 L38.9717701,22.3651856 C38.9717701,21.6532885 38.5479513,21.0107437 37.8941441,20.7303712" id="Fill-811" fill="#FFFFFE"></path>
                        <polyline id="Fill-812" fill="#FE9900" points="36.600163 24.1553014 38.3784238 27.711823 42.5276989 27.711823 42.5276989 24.1553014 36.600163 24.1553014"></polyline>
                        <path d="M36.600163,24.1553014 L37.7856702,26.525723 L40.1566845,26.525723 C40.4838845,26.525723 40.7494381,26.2607622 40.7494381,25.9329694 L40.7494381,24.1553014 L36.600163,24.1553014" id="Fill-813" fill="#FFFFFE"></path>
                        <path d="M38.6534614,27.2672578 L42.0831337,27.2672578 L42.0831337,24.5998666 L37.3191731,24.5998666 L38.6534614,27.2672578 Z M42.5276989,28.1563882 L38.3784238,28.1563882 C38.2100818,28.1563882 38.0559658,28.0609548 37.9806861,27.9103954 L36.2024254,24.3538739 C36.1336659,24.2163551 36.140779,24.0527551 36.2219862,23.9223493 C36.3026007,23.790758 36.4460471,23.7107362 36.600163,23.7107362 L42.5276989,23.7107362 C42.7730989,23.7107362 42.9722641,23.9099015 42.9722641,24.1553014 L42.9722641,27.711823 C42.9722641,27.9572229 42.7730989,28.1563882 42.5276989,28.1563882 L42.5276989,28.1563882 Z" id="Fill-814" fill="#524942"></path>
                        <path d="M30.0804663,19.4138655 L38.3790165,19.4138655 L33.7875472,10.1313443 C33.1876806,8.91857048 31.9517894,8.15154733 30.5997184,8.15154733 L27.7094519,8.15154733 L27.7094519,17.0428511 C27.7094519,18.3522438 28.7710736,19.4138655 30.0804663,19.4138655" id="Fill-815" fill="#FFFFFE"></path>
                        <path d="M33.7875472,10.1313443 C33.1876806,8.91857048 31.9517894,8.15154733 30.5997184,8.15154733 L27.7094519,8.15154733 L27.7094519,8.15628936 C29.0330707,8.18414878 30.2345822,8.94109511 30.8231865,10.1313443 L35.4152486,19.4138655 L38.3790165,19.4138655 L33.7875472,10.1313443" id="Fill-816" fill="#FE9900"></path>
                        <path d="M28.1540171,8.59611252 L28.1540171,17.0428511 C28.1540171,18.1044728 29.0182519,18.9693003 30.0804663,18.9693003 L37.6629702,18.9693003 L33.3886241,10.3281385 C32.8604806,9.25940379 31.7911532,8.59611252 30.5997184,8.59611252 L28.1540171,8.59611252 Z M38.3790165,19.8584307 L30.0804663,19.8584307 C28.5280447,19.8584307 27.2648868,18.5952728 27.2648868,17.0428511 L27.2648868,8.15154733 C27.2648868,7.90614735 27.464052,7.70698214 27.7094519,7.70698214 L30.5997184,7.70698214 C32.1319865,7.70698214 33.5059893,8.56054731 34.1858776,9.93395737 L38.7773469,19.2164785 C38.8455136,19.3545901 38.8378078,19.5175974 38.7566006,19.6480032 C38.6753933,19.7790017 38.5325397,19.8584307 38.3790165,19.8584307 L38.3790165,19.8584307 Z" id="Fill-817" fill="#524942"></path>
                        <path d="M5.77816197,3.40833313 C5.12316926,3.40833313 4.5926548,3.9400331 4.5926548,4.5938403 L4.5926548,30.6761837 C4.5926548,31.3305836 5.12316926,31.8616908 5.77816197,31.8616908 L23.5601768,31.8616908 L23.5601768,4.5938403 C23.5601768,3.9400331 23.0290696,3.40833313 22.3746697,3.40833313 L5.77816197,3.40833313" id="Fill-818" fill="#FE9900"></path>
                        <path d="M5.77816197,3.40833313 C5.12316926,3.40833313 4.5926548,3.9400331 4.5926548,4.5938403 L4.5926548,28.8973301 L18.8175554,28.8973301 C19.4725481,28.8973301 20.0030626,28.3668157 20.0030626,27.711823 L20.0030626,3.40833313 L5.77816197,3.40833313" id="Fill-819" fill="#FFFFFE"></path>
                        <path d="M5.77816197,3.85289832 C5.36916199,3.85289832 5.03721999,4.18543308 5.03721999,4.5938403 L5.03721999,30.6761837 C5.03721999,31.0851836 5.36916199,31.4171256 5.77816197,31.4171256 L23.1156116,31.4171256 L23.1156116,4.5938403 C23.1156116,4.18543308 22.7830769,3.85289832 22.3746697,3.85289832 L5.77816197,3.85289832 Z M23.5601768,32.306256 L5.77816197,32.306256 C4.87895478,32.306256 4.1480896,31.5747981 4.1480896,30.6761837 L4.1480896,4.5938403 C4.1480896,3.69581862 4.87895478,2.96376794 5.77816197,2.96376794 L22.3746697,2.96376794 C23.2732841,2.96376794 24.004742,3.69581862 24.004742,4.5938403 L24.004742,31.8616908 C24.004742,32.1070908 23.8055768,32.306256 23.5601768,32.306256 L23.5601768,32.306256 Z" id="Fill-820" fill="#524942"></path>
                        <path d="M24.004742,31.4171256 L40.0132382,31.4171256 C40.3694831,31.4171256 40.7043888,31.2784213 40.9557164,31.026501 L41.6931018,30.2897083 C41.9456149,30.0371953 42.0843192,29.7028823 42.0843192,29.3460446 L42.0843192,22.3651856 C42.0843192,21.8299291 41.767196,21.3497987 41.2758033,21.1387784 L38.2877325,19.8584307 L30.0804663,19.8584307 C28.5280447,19.8584307 27.2648868,18.5952728 27.2648868,17.0428511 L27.2648868,8.59611252 L24.004742,8.59611252 L24.004742,31.4171256 Z M40.0132382,32.306256 L23.5601768,32.306256 C23.3147769,32.306256 23.1156116,32.1070908 23.1156116,31.8616908 L23.1156116,8.15154733 C23.1156116,7.90614735 23.3147769,7.70698214 23.5601768,7.70698214 L27.7094519,7.70698214 C27.9548519,7.70698214 28.1540171,7.90614735 28.1540171,8.15154733 L28.1540171,17.0428511 C28.1540171,18.1044728 29.0182519,18.9693003 30.0804663,18.9693003 L38.3790165,18.9693003 C38.4388846,18.9693003 38.4987527,18.9811554 38.5538788,19.0054583 L41.6261207,20.321964 C42.4447134,20.6722814 42.9734496,21.4748697 42.9734496,22.3651856 L42.9734496,29.3460446 C42.9734496,29.9399837 42.7422757,30.4983576 42.3220134,30.9186199 L41.5846279,31.6560053 C41.1643656,32.0750821 40.6065845,32.306256 40.0132382,32.306256 L40.0132382,32.306256 Z" id="Fill-821" fill="#524942"></path>
                        <path d="M42.5288844,38.2337919 L28.4160142,38.2337919 C28.1706142,38.2337919 27.971449,38.0346267 27.971449,37.7892267 C27.971449,37.5438267 28.1706142,37.3446615 28.4160142,37.3446615 L42.5288844,37.3446615 C42.7742844,37.3446615 42.9734496,37.5438267 42.9734496,37.7892267 C42.9734496,38.0346267 42.7742844,38.2337919 42.5288844,38.2337919" id="Fill-822" fill="#524942"></path>
                        <path d="M25.4516535,38.2337919 L13.9012571,38.2337919 C13.6558571,38.2337919 13.4566919,38.0346267 13.4566919,37.7892267 C13.4566919,37.5438267 13.6558571,37.3446615 13.9012571,37.3446615 L25.4516535,37.3446615 C25.6970535,37.3446615 25.8962187,37.5438267 25.8962187,37.7892267 C25.8962187,38.0346267 25.6970535,38.2337919 25.4516535,38.2337919" id="Fill-823" fill="#524942"></path>
                        <path d="M10.9374892,38.2337919 L8.14917632,38.2337919 C7.90377633,38.2337919 7.70461113,38.0346267 7.70461113,37.7892267 C7.70461113,37.5438267 7.90377633,37.3446615 8.14917632,37.3446615 L10.9374892,37.3446615 C11.1828892,37.3446615 11.3820544,37.5438267 11.3820544,37.7892267 C11.3820544,38.0346267 11.1828892,38.2337919 10.9374892,38.2337919" id="Fill-824" fill="#524942"></path>
                        <path d="M38.9717701,41.7903134 L31.9725358,41.7903134 C31.7271358,41.7903134 31.5279706,41.5911482 31.5279706,41.3457482 C31.5279706,41.1003482 31.7271358,40.901183 31.9725358,40.901183 L38.9717701,40.901183 C39.2171701,40.901183 39.4163353,41.1003482 39.4163353,41.3457482 C39.4163353,41.5911482 39.2171701,41.7903134 38.9717701,41.7903134" id="Fill-825" fill="#524942"></path>
                        <path d="M29.0087678,41.7903134 L18.6438786,41.7903134 C18.3984786,41.7903134 18.1993134,41.5911482 18.1993134,41.3457482 C18.1993134,41.1003482 18.3984786,40.901183 18.6438786,40.901183 L29.0087678,40.901183 C29.2541678,40.901183 29.453333,41.1003482 29.453333,41.3457482 C29.453333,41.5911482 29.2541678,41.7903134 29.0087678,41.7903134" id="Fill-826" fill="#524942"></path>
                        <path d="M15.6795179,41.7903134 L5.18540838,41.7903134 C4.9400084,41.7903134 4.74084319,41.5911482 4.74084319,41.3457482 C4.74084319,41.1003482 4.9400084,40.901183 5.18540838,40.901183 L15.6795179,40.901183 C15.9249179,40.901183 16.1240831,41.1003482 16.1240831,41.3457482 C16.1240831,41.5911482 15.9249179,41.7903134 15.6795179,41.7903134" id="Fill-827" fill="#524942"></path>
                        <path d="M17.6338265,31.8616908 C17.6338265,33.8260762 16.0416903,35.4182124 14.0773049,35.4182124 C12.1129196,35.4182124 10.5207834,33.8260762 10.5207834,31.8616908 C10.5207834,29.8973054 12.1129196,28.3051693 14.0773049,28.3051693 C16.0416903,28.3051693 17.6338265,29.8973054 17.6338265,31.8616908" id="Fill-828" fill="#FFFFFE"></path>
                        <path d="M15.9255106,28.8273852 C16.2544889,29.366791 16.4483193,29.9980736 16.4483193,30.6755909 C16.4483193,32.6399763 14.8555904,34.2327052 12.8917978,34.2327052 C12.2136877,34.2327052 11.5824051,34.0394675 11.0429993,33.7098965 C11.6677616,34.7329892 12.7910297,35.4182124 14.0773049,35.4182124 C16.0416903,35.4182124 17.6338265,33.8260762 17.6338265,31.8616908 C17.6338265,30.5754155 16.9486033,29.4521475 15.9255106,28.8273852" id="Fill-829" fill="#FE9900"></path>
                        <path d="M14.0773049,28.7497345 C12.3612833,28.7497345 10.9653486,30.1456692 10.9653486,31.8616908 C10.9653486,33.5777125 12.3612833,34.9736472 14.0773049,34.9736472 C15.7933266,34.9736472 17.1892613,33.5777125 17.1892613,31.8616908 C17.1892613,30.1456692 15.7933266,28.7497345 14.0773049,28.7497345 Z M14.0773049,35.8627775 C11.8704833,35.8627775 10.0762182,34.0679197 10.0762182,31.8616908 C10.0762182,29.655462 11.8704833,27.8606041 14.0773049,27.8606041 C16.2835338,27.8606041 18.0783917,29.655462 18.0783917,31.8616908 C18.0783917,34.0679197 16.2835338,35.8627775 14.0773049,35.8627775 L14.0773049,35.8627775 Z" id="Fill-830" fill="#524942"></path>
                        <path d="M15.2628121,31.8616908 C15.2628121,32.5160908 14.7317049,33.047198 14.0773049,33.047198 C13.4223122,33.047198 12.8917978,32.5160908 12.8917978,31.8616908 C12.8917978,31.2066981 13.4223122,30.6761837 14.0773049,30.6761837 C14.7317049,30.6761837 15.2628121,31.2066981 15.2628121,31.8616908" id="Fill-831" fill="#FFFFFE"></path>
                        <path d="M14.0773049,31.1207488 C13.668305,31.1207488 13.336363,31.4532836 13.336363,31.8616908 C13.336363,32.2706908 13.668305,32.6026328 14.0773049,32.6026328 C14.4857122,32.6026328 14.8182469,32.2706908 14.8182469,31.8616908 C14.8182469,31.4532836 14.4857122,31.1207488 14.0773049,31.1207488 Z M14.0773049,33.4917632 C13.1780978,33.4917632 12.4472326,32.7603053 12.4472326,31.8616908 C12.4472326,30.9624836 13.1780978,30.2316185 14.0773049,30.2316185 C14.9759194,30.2316185 15.7073773,30.9624836 15.7073773,31.8616908 C15.7073773,32.7603053 14.9759194,33.4917632 14.0773049,33.4917632 L14.0773049,33.4917632 Z" id="Fill-832" fill="#524942"></path>
                        <path d="M36.600163,31.8616908 C36.600163,33.8260762 35.0080269,35.4182124 33.0436415,35.4182124 C31.0792561,35.4182124 29.48712,33.8260762 29.48712,31.8616908 C29.48712,29.8973054 31.0792561,28.3051693 33.0436415,28.3051693 C35.0080269,28.3051693 36.600163,29.8973054 36.600163,31.8616908" id="Fill-833" fill="#FFFFFE"></path>
                        <path d="M34.8918472,28.8273852 C35.2214182,29.366791 35.4146558,29.9980736 35.4146558,30.6755909 C35.4146558,32.6399763 33.8219269,34.2327052 31.8581343,34.2327052 C31.1800242,34.2327052 30.5487416,34.0394675 30.0093359,33.7098965 C30.6340982,34.7329892 31.7573662,35.4182124 33.0436415,35.4182124 C35.0080269,35.4182124 36.600163,33.8260762 36.600163,31.8616908 C36.600163,30.5754155 35.9149399,29.4521475 34.8918472,28.8273852" id="Fill-834" fill="#FE9900"></path>
                        <path d="M33.0436415,28.7497345 C31.3276198,28.7497345 29.9316851,30.1456692 29.9316851,31.8616908 C29.9316851,33.5777125 31.3276198,34.9736472 33.0436415,34.9736472 C34.7596631,34.9736472 36.1555978,33.5777125 36.1555978,31.8616908 C36.1555978,30.1456692 34.7596631,28.7497345 33.0436415,28.7497345 Z M33.0436415,35.8627775 C30.8374126,35.8627775 29.0425548,34.0679197 29.0425548,31.8616908 C29.0425548,29.655462 30.8374126,27.8606041 33.0436415,27.8606041 C35.2498703,27.8606041 37.0447282,29.655462 37.0447282,31.8616908 C37.0447282,34.0679197 35.2498703,35.8627775 33.0436415,35.8627775 L33.0436415,35.8627775 Z" id="Fill-835" fill="#524942"></path>
                        <path d="M34.2291487,31.8616908 C34.2291487,32.5160908 33.6986342,33.047198 33.0436415,33.047198 C32.3886488,33.047198 31.8581343,32.5160908 31.8581343,31.8616908 C31.8581343,31.2066981 32.3886488,30.6761837 33.0436415,30.6761837 C33.6986342,30.6761837 34.2291487,31.2066981 34.2291487,31.8616908" id="Fill-836" fill="#FFFFFE"></path>
                        <path d="M33.0436415,31.1207488 C32.6346415,31.1207488 32.3026995,31.4532836 32.3026995,31.8616908 C32.3026995,32.2706908 32.6346415,32.6026328 33.0436415,32.6026328 C33.4520487,32.6026328 33.7845835,32.2706908 33.7845835,31.8616908 C33.7845835,31.4532836 33.4520487,31.1207488 33.0436415,31.1207488 Z M33.0436415,33.4917632 C32.1444343,33.4917632 31.4135691,32.7603053 31.4135691,31.8616908 C31.4135691,30.9624836 32.1444343,30.2316185 33.0436415,30.2316185 C33.9422559,30.2316185 34.6737138,30.9624836 34.6737138,31.8616908 C34.6737138,32.7603053 33.9422559,33.4917632 33.0436415,33.4917632 L33.0436415,33.4917632 Z" id="Fill-837" fill="#524942"></path>
                        <path d="M30.6726271,22.229445 L28.3022055,22.229445 C28.0568056,22.229445 27.8576403,22.0302798 27.8576403,21.7848798 C27.8576403,21.5394799 28.0568056,21.3403147 28.3022055,21.3403147 L30.6726271,21.3403147 C30.9180271,21.3403147 31.1171923,21.5394799 31.1171923,21.7848798 C31.1171923,22.0302798 30.9180271,22.229445 30.6726271,22.229445" id="Fill-838" fill="#524942"></path>
                        <path d="M20.5964089,18.6729235 L7.55582998,18.6729235 C7.31042999,18.6729235 7.11126479,18.4737583 7.11126479,18.2283583 C7.11126479,17.9829583 7.31042999,17.7837931 7.55582998,17.7837931 L20.5964089,17.7837931 C20.8418089,17.7837931 21.0409741,17.9829583 21.0409741,18.2283583 C21.0409741,18.4737583 20.8418089,18.6729235 20.5964089,18.6729235" id="Fill-839" fill="#524942"></path>
                        <path d="M20.5964089,22.229445 L7.55582998,22.229445 C7.31042999,22.229445 7.11126479,22.0302798 7.11126479,21.7848798 C7.11126479,21.5394799 7.31042999,21.3403147 7.55582998,21.3403147 L20.5964089,21.3403147 C20.8418089,21.3403147 21.0409741,21.5394799 21.0409741,21.7848798 C21.0409741,22.0302798 20.8418089,22.229445 20.5964089,22.229445" id="Fill-840" fill="#524942"></path>
                        <path d="M20.5964089,25.7859666 L7.55582998,25.7859666 C7.31042999,25.7859666 7.11126479,25.5868014 7.11126479,25.3414014 C7.11126479,25.0960014 7.31042999,24.8968362 7.55582998,24.8968362 L20.5964089,24.8968362 C20.8418089,24.8968362 21.0409741,25.0960014 21.0409741,25.3414014 C21.0409741,25.5868014 20.8418089,25.7859666 20.5964089,25.7859666" id="Fill-841" fill="#524942"></path>
                        <path d="M20.5964089,15.1152165 L7.55582998,15.1152165 C7.31042999,15.1152165 7.11126479,14.9160513 7.11126479,14.6706513 C7.11126479,14.4252513 7.31042999,14.2260861 7.55582998,14.2260861 L20.5964089,14.2260861 C20.8418089,14.2260861 21.0409741,14.4252513 21.0409741,14.6706513 C21.0409741,14.9160513 20.8418089,15.1152165 20.5964089,15.1152165" id="Fill-842" fill="#524942"></path>
                        <path d="M20.5964089,11.558695 L7.55582998,11.558695 C7.31042999,11.558695 7.11126479,11.3595297 7.11126479,11.1141298 C7.11126479,10.8687298 7.31042999,10.6695646 7.55582998,10.6695646 L20.5964089,10.6695646 C20.8418089,10.6695646 21.0409741,10.8687298 21.0409741,11.1141298 C21.0409741,11.3595297 20.8418089,11.558695 20.5964089,11.558695" id="Fill-843" fill="#524942"></path>
                        <path d="M20.5964089,8.00217343 L7.55582998,8.00217343 C7.31042999,8.00217343 7.11126479,7.80300822 7.11126479,7.55760824 C7.11126479,7.31220825 7.31042999,7.11304305 7.55582998,7.11304305 L20.5964089,7.11304305 C20.8418089,7.11304305 21.0409741,7.31220825 21.0409741,7.55760824 C21.0409741,7.80300822 20.8418089,8.00217343 20.5964089,8.00217343" id="Fill-844" fill="#524942"></path>
                        <path d="M39.7915483,12.7098224 L38.9711774,12.7098224 C38.7257774,12.7098224 38.5266122,12.5106572 38.5266122,12.2652572 C38.5266122,12.0198572 38.7257774,11.820692 38.9711774,11.820692 L39.7915483,11.820692 C40.0369483,11.820692 40.2361135,12.0198572 40.2361135,12.2652572 C40.2361135,12.5106572 40.0369483,12.7098224 39.7915483,12.7098224" id="Fill-845" fill="#524942"></path>
                        <path d="M42.5276989,12.7098224 L41.7067352,12.7098224 C41.4613352,12.7098224 41.26217,12.5106572 41.26217,12.2652572 C41.26217,12.0198572 41.4613352,11.820692 41.7067352,11.820692 L42.5276989,11.820692 C42.7730989,11.820692 42.9722641,12.0198572 42.9722641,12.2652572 C42.9722641,12.5106572 42.7730989,12.7098224 42.5276989,12.7098224" id="Fill-846" fill="#524942"></path>
                        <path d="M40.7494381,14.4880832 C40.5040381,14.4880832 40.3048729,14.288918 40.3048729,14.043518 L40.3048729,13.2225543 C40.3048729,12.9771543 40.5040381,12.7779891 40.7494381,12.7779891 C40.9948381,12.7779891 41.1940033,12.9771543 41.1940033,13.2225543 L41.1940033,14.043518 C41.1940033,14.288918 40.9948381,14.4880832 40.7494381,14.4880832" id="Fill-847" fill="#524942"></path>
                        <path d="M40.7494381,11.7525254 C40.5040381,11.7525254 40.3048729,11.5533602 40.3048729,11.3079602 L40.3048729,10.4869965 C40.3048729,10.2415965 40.5040381,10.0424313 40.7494381,10.0424313 C40.9948381,10.0424313 41.1940033,10.2415965 41.1940033,10.4869965 L41.1940033,11.3079602 C41.1940033,11.5533602 40.9948381,11.7525254 40.7494381,11.7525254" id="Fill-848" fill="#524942"></path>
                        <path d="M33.2706661,5.59618662 L32.4497024,5.59618662 C32.2043024,5.59618662 32.0051372,5.39702141 32.0051372,5.15162143 C32.0051372,4.90622144 32.2043024,4.70705624 32.4497024,4.70705624 L33.2706661,4.70705624 C33.5160661,4.70705624 33.7152313,4.90622144 33.7152313,5.15162143 C33.7152313,5.39702141 33.5160661,5.59618662 33.2706661,5.59618662" id="Fill-849" fill="#524942"></path>
                        <path d="M36.0062239,5.59618662 L35.1858529,5.59618662 C34.940453,5.59618662 34.7412878,5.39702141 34.7412878,5.15162143 C34.7412878,4.90622144 34.940453,4.70705624 35.1858529,4.70705624 L36.0062239,4.70705624 C36.2516239,4.70705624 36.4507891,4.90622144 36.4507891,5.15162143 C36.4507891,5.39702141 36.2516239,5.59618662 36.0062239,5.59618662" id="Fill-850" fill="#524942"></path>
                        <path d="M34.2279632,7.37444738 C33.9825632,7.37444738 33.783398,7.17528218 33.783398,6.92988219 L33.783398,6.10951123 C33.783398,5.86411124 33.9825632,5.66494603 34.2279632,5.66494603 C34.4733631,5.66494603 34.6725283,5.86411124 34.6725283,6.10951123 L34.6725283,6.92988219 C34.6725283,7.17528218 34.4733631,7.37444738 34.2279632,7.37444738" id="Fill-851" fill="#524942"></path>
                        <path d="M34.2279632,4.63888957 C33.9825632,4.63888957 33.783398,4.43972437 33.783398,4.19432438 L33.783398,3.37336067 C33.783398,3.12796068 33.9825632,2.92879548 34.2279632,2.92879548 C34.4733631,2.92879548 34.6725283,3.12796068 34.6725283,3.37336067 L34.6725283,4.19432438 C34.6725283,4.43972437 34.4733631,4.63888957 34.2279632,4.63888957" id="Fill-852" fill="#524942"></path>
                    </g>
                </g>
            </g>
        </g>
    </g>
</svg>