<?xml version="1.0" encoding="UTF-8"?>
<svg width="20px" height="16px" viewBox="0 0 20 16" version="1.1" xmlns="http://www.w3.org/2000/svg" xmlns:xlink="http://www.w3.org/1999/xlink">
    <title>FD43CCE8-DD2A-4075-BB5C-08D84E7C82F0</title>
    <g id="Page-1" stroke="none" stroke-width="1" fill="none" fill-rule="evenodd">
        <g id="AmazonMCF_v2" transform="translate(-1085.000000, -259.000000)" fill="#FE9900" fill-rule="nonzero">
            <g id="Group-3" transform="translate(164.000000, 123.000000)">
                <g id="Group-12-Copy-2" transform="translate(857.000000, 12.000000)">
                    <g id="Group-11" transform="translate(64.000000, 122.000000)">
                        <path d="M19.5,13 L19,13 L19,9.621875 C19,9.225 18.840625,8.84375 18.559375,8.5625 L15.4375,5.440625 C15.15625,5.159375 14.775,5 14.378125,5 L13,5 L13,3.5 C13,2.671875 12.328125,2 11.5,2 L1.5,2 C0.671875,2 0,2.671875 0,3.5 L0,13.5 C0,14.328125 0.671875,15 1.5,15 L2,15 C2,16.65625 3.34375,18 5,18 C6.65625,18 8,16.65625 8,15 L12,15 C12,16.65625 13.34375,18 15,18 C16.65625,18 18,16.65625 18,15 L19.5,15 C19.775,15 20,14.775 20,14.5 L20,13.5 C20,13.225 19.775,13 19.5,13 Z M5,16.5 C4.171875,16.5 3.5,15.828125 3.5,15 C3.5,14.171875 4.171875,13.5 5,13.5 C5.828125,13.5 6.5,14.171875 6.5,15 C6.5,15.828125 5.828125,16.5 5,16.5 Z M15,16.5 C14.171875,16.5 13.5,15.828125 13.5,15 C13.5,14.171875 14.171875,13.5 15,13.5 C15.828125,13.5 16.5,14.171875 16.5,15 C16.5,15.828125 15.828125,16.5 15,16.5 Z M17.5,10 L13,10 L13,6.5 L14.378125,6.5 L17.5,9.621875 L17.5,10 Z" id="Shape"></path>
                    </g>
                </g>
            </g>
        </g>
    </g>
</svg>